<?xml version="1.0" encoding="UTF-8"?>
<svg id="Layer_5" data-name="Layer 5" xmlns="http://www.w3.org/2000/svg" viewBox="0 0 801.34 464.5">
  <defs>
    <style>
      .cls-1 {
        fill: #ffb000;
      }

      .cls-2 {
        fill: #c4e6ff;
      }

      .cls-3 {
        fill: #ff7f00;
      }
    </style>
  </defs>
  <g>
    <path class="cls-1" d="M495.67,116.42c8.94,10.91,19.88,16.37,32.82,16.37,13.77,0,24.71-5.08,32.82-15.21,8.35-10.35,12.51-23.92,12.51-40.77s-4.16-30.23-12.51-40.17c-8.12-10.13-19.06-15.21-32.82-15.21-12.94,0-23.88,5.46-32.82,16.37-1.14,1.35-2.2,2.73-3.14,4.15l-8.9-5.57c3.92-10.2,23.53-29.9,47.06-29.9,47.06,0,58.83,48.17,58.83,71s-15.69,67.26-58.83,67.26c-31.37,0-42.24-19.92-47.06-29.9l7.53-4.75c1.29,2.17,2.78,4.26,4.51,6.32Z"/>
    <path class="cls-1" d="M483.63,36.37l8.9,5.57c-6.71,10.01-8.9,22.12-8.9,35.54,0,12.59,1.88,23.24,7.53,32.62l-7.53,4.75-1.73,85.76h-13.92V9.62c7.77,0,14.24,6.02,14.75,13.83l.9,12.93Z"/>
    <polygon class="cls-3" points="481.9 200.61 481.83 204.54 481.79 224.12 467.94 224.12 467.98 200.61 481.9 200.61"/>
    <path class="cls-1" d="M481.79,224.12l-.31,165.02c0,3.81-1.53,7.29-4.04,9.79-2.51,2.5-5.96,4.04-9.77,4.04l.27-178.85h13.84Z"/>
  </g>
  <g>
    <path class="cls-1" d="M701.52,259.86c4.16-10.24,10.47-18.31,18.98-24.24,8.51-6.24,17.92-9.33,28.28-9.33,14.51,0,26.79,5.53,36.9,16.59,10.35,11.33,15.53,24.79,15.53,40.43v119.65c-3.8,0-7.26-1.53-9.77-4.04-2.47-2.47-4.04-5.92-4.04-9.77v-105.85c0-11.84-3.76-21.96-11.37-30.31-7.57-8.35-16.67-12.55-27.26-12.55-11.49,0-21.73,4.59-30.71,13.77-3.37,3.53-6.24,7.37-8.63,11.57l-7.92-5.92Z"/>
    <path class="cls-1" d="M709.44,265.78c-3.96,6.98-6.63,14.82-7.92,23.61v99.77c0,7.65-6.16,13.8-13.8,13.8v-172.2c3.84,0,7.29,1.53,9.77,4.04,2.51,2.51,4.04,5.96,4.04,9.77v15.29l7.92,5.92Z"/>
    <path class="cls-1" d="M643.6,230.76v168.16c0,20.75-5.65,36.79-16.9,48.12-11.06,11.57-26.71,17.37-46.94,17.37-17.45,0-32.28-5.37-44.47-16.16-12.43-11.06-18.63-24.28-18.63-39.61,3.33,0,6.51,1.06,9.1,2.9,2.59,1.88,4.55,4.51,5.49,7.73,2.12,7.18,6.43,13.61,13.02,19.26,9.88,8.12,21.73,12.16,35.49,12.16,15.18,0,27.26-4.75,36.24-14.16,9.18-9.45,13.8-22.12,13.8-38v-35.18l-11.1-3.26c7.41-13.65,11.1-29.53,11.1-47.69s-3.69-34.04-11.1-47.69l11.1-1.65v-18.51c0-7.65,6.16-13.8,13.8-13.8Z"/>
    <path class="cls-1" d="M618.69,264.72c-1.06-1.92-2.2-3.84-3.41-5.69-9.65-14.55-21.37-21.8-35.18-21.8-15.18,0-27.26,6.86-36.2,20.59-9.22,13.77-13.8,31.96-13.8,54.59s4.59,40.83,13.8,54.59c8.94,13.73,21.02,20.63,36.2,20.63,13.8,0,25.53-7.29,35.18-21.84,1.22-1.84,2.35-3.76,3.41-5.69l11.1,3.26c-4.39,11.33-11.06,20.2-20,26.67-9.22,6.75-19.1,10.12-29.69,10.12-19.29,0-34.71-7.96-46.2-23.84-11.73-16.16-17.61-37.45-17.61-63.88s5.88-47.69,17.61-63.88c11.49-15.88,26.9-23.84,46.2-23.84,11.26,0,21.49,3.53,30.71,10.51,8.98,7.02,15.29,16.31,18.98,27.88l-11.1,1.65Z"/>
    <path class="cls-1" d="M300.01,309.19v7.69h-14.94c5.02-10.39,9.29-21.22,12.75-32.51,1.49,7.65,2.2,15.92,2.2,24.82Z"/>
    <path class="cls-1" d="M299.82,353.66h.2c-2.27,15.88-9.65,29.1-22.08,39.61-12.39,10.51-26.9,15.77-43.45,15.77-10.47,0-19.84-2.35-28.16-7.06,5.69-2.63,11.22-5.73,16.63-9.37,3.65.98,7.49,1.45,11.53,1.45,11.73,0,22.31-3.61,31.73-10.9,6.47-5.02,11.57-11.06,15.33-18.16,3.69-6.82,10.51-11.33,18.28-11.33Z"/>
    <path class="cls-3" d="M297.82,284.37c-3.45,11.29-7.73,22.12-12.75,32.51h-102.32c0,23.41,4.71,42.16,14.12,56.16,7.02,10.39,15.69,16.94,26.08,19.57-5.41,3.65-10.94,6.75-16.63,9.37-7.33-4.12-13.8-10.16-19.45-18-11.96-16.98-17.92-39.37-17.92-67.1,0-5.22.2-10.24.63-15.06,1.8-20.9,7.57-38.28,17.29-52.08,11.96-16.71,27.84-25.06,47.61-25.06s35.65,7.69,47.61,23.06c7.8,10,13.06,22.24,15.73,36.63ZM280.17,301.5c3.33,0,6.08-2.71,6.08-6.08-1.18-15.88-6.71-29.37-16.59-40.43-10.12-10.75-21.84-16.16-35.18-16.16s-24.94,5.53-34.82,16.59c-10.12,11.29-15.77,25.18-16.9,41.61v4.47h97.42Z"/>
    <path class="cls-2" d="M269.66,254.99c9.88,11.06,15.41,24.55,16.59,40.43,0,3.37-2.75,6.08-6.08,6.08h-97.42v-4.47c1.14-16.43,6.78-30.31,16.9-41.61,9.88-11.06,21.49-16.59,34.82-16.59s25.06,5.41,35.18,16.16Z"/>
    <path class="cls-2" d="M182.76,316.88h102.32c-5.69,11.77-12.35,22.98-20,33.61-12.9,17.92-26.94,32-42.12,42.12-10.39-2.63-19.06-9.18-26.08-19.57-9.41-14-14.12-32.75-14.12-56.16Z"/>
    <path class="cls-1" d="M354.41,144.91c0,12.39,4.08,23.06,12.2,32,8.12,8.63,17.88,12.98,29.33,12.98,13.18,0,23.8-3.92,31.92-11.69,7.92-8.08,11.88-18.59,11.88-31.57,0-9.8-4.2-18.16-12.51-25.1-8.35-6.63-19.57-10.78-33.61-12.55-14.94-1.73-26.82-7.18-35.57-16.43-1.37-1.41-2.67-2.9-3.84-4.43l.2,56.79ZM276.64,30c-7.57,7.22-12.55,16.04-14.82,26.47-4.35-5.45-8.86-10.47-13.49-15.06V10.24c7.1,0,12.86,5.76,12.86,12.86v11.69c3.88-8.63,9.77-15.45,17.73-20.47,7.92-5.22,16.71-7.84,26.39-7.84,13.49,0,24.98,4.67,34.43,14,4.24,4.16,7.53,8.75,9.92,13.65,2.12-4.24,4.94-7.96,8.39-11.18,8.98-8.35,21.61-12.55,37.88-12.55s28,4.47,37.22,13.41c9.41,8.94,14.16,20.9,14.16,35.88h-.86c-6.47,0-11.96-4.31-14.08-10.43-2.2-6.39-5.57-11.73-10.08-15.96-6.82-6.31-15.61-9.49-26.35-9.49-11.88,0-21.33,3.18-28.35,9.49-7.02,6.35-10.55,14.71-10.55,25.1,0,9.8,4.31,18.16,12.86,25.1,8.35,6.63,19.53,10.78,33.61,12.55,14.71,1.73,26.55,7.49,35.57,17.29,8.78,9.8,12.78,22.04,13.18,36.75.55,21.88-19.06,65.02-66.63,66.59-13.02.43-23.37,3.33-31.06,10-7.73,6.67-11.57,15.49-11.57,26.39s4.71,19.14,14.08,26.43c9.18,6.98,21.45,11.37,36.86,13.18,16.12,1.84,29.1,7.88,38.98,18.24,9.65,10.31,14.43,23.18,14.43,38.67,0,17.29-5.65,31.1-16.94,41.41-11.1,10.35-26,15.49-44.79,15.49-16.39,0-30.24-6.08-41.53-18.2-11.57-12.16-17.33-26.86-17.33-44.16h1.06c6.63,0,12.04,4.78,13.49,11.26,1.88,8.39,5.92,15.84,12.16,22.43,8.9,9.1,19.65,13.65,32.16,13.65,14.43,0,26.12-4.12,35.02-12.28,8.67-8.51,13.02-19.61,13.02-33.26,0-10.31-4.59-19.1-13.73-26.39-9.18-6.98-21.45-11.37-36.86-13.22-16.35-1.8-29.37-7.57-38.98-17.29-9.88-9.69-14.82-21.69-14.82-35.96,0-16.08,4.94-28.51,14.82-37.3,9.41-8.39,22.39-12.78,38.98-13.18-9.49-2.43-17.8-7.69-25.02-15.77-8.2-8.98-13.22-19.41-15.06-31.33l-1.65-100.95c0-10-3.53-18.51-10.63-25.57-7.1-7.06-15.57-10.59-25.41-10.59-10.75,0-20.28,3.88-28.67,11.61Z"/>
    <path class="cls-3" d="M261.82,56.47c-.24,1.06-.43,2.12-.63,3.22v95.81h-12.86V41.41c4.63,4.59,9.14,9.61,13.49,15.06Z"/>
    <path class="cls-2" d="M186.87,249.74c-9.73,13.8-15.49,31.18-17.29,52.08l-8.75-.51c.24-4.12.35-8.31.35-12.59,0-32.55-7.69-60.24-23.06-83.02-15.57-23.1-34.32-34.63-56.2-34.63H-.08V2.55h158.12c34.08,0,64.16,12.94,90.28,38.86v114.08h12.86V59.69c.2-1.1.39-2.16.63-3.22,1.1,1.33,2.2,2.71,3.26,4.08,29.73,38.67,44.59,85.53,44.59,140.59,0,30-3.92,57.77-11.84,83.22-2.67-14.39-7.92-26.63-15.73-36.63-11.96-15.37-27.84-23.06-47.61-23.06s-35.65,8.35-47.61,25.06Z"/>
    <path class="cls-2" d="M168.95,316.88c0,27.73,5.96,50.12,17.92,67.1,5.65,7.84,12.12,13.88,19.45,18-15.1,6.98-31.18,10.47-48.28,10.47h-76.12c21.88,0,40.63-12.08,56.2-36.24,13.45-21.1,21.02-46.08,22.71-74.91l8.75.51c-.43,4.82-.63,9.84-.63,15.06Z"/>
    <path class="cls-3" d="M161.19,288.72c0,4.27-.12,8.47-.35,12.59-1.69,28.82-9.26,53.81-22.71,74.91-15.57,24.16-34.32,36.24-56.2,36.24H-.08v-241.38h82c21.88,0,40.63,11.53,56.2,34.63,15.37,22.79,23.06,50.47,23.06,83.02Z"/>
  </g>
</svg>