<?xml version="1.0" encoding="UTF-8"?>
<svg id="Layer_5" data-name="Layer 5" xmlns="http://www.w3.org/2000/svg" viewBox="0 0 393 410">
  <defs>
    <style>
      .cls-1 {
        fill: #c4e6ff;
      }

      .cls-2 {
        fill: #ff7f00;
      }

      .cls-3 {
        fill: #ffbf00;
      }
    </style>
  </defs>
  <rect class="cls-1" x="8" y="19" width="376" height="376" rx="188" ry="188"/>
  <path class="cls-2" d="M8,84.63v304.37h87c109,0,124-71,124-170,0-168.3-211-134.37-211-134.37Z"/>
  <path class="cls-3" d="M91.74,139.67c0-26.17,0-51.16-.54-74.95h0c14.9,0,27.04,11.94,27.31,26.83.23,12.52.25,25.3-.03,29.68,11.77-30.34,33.7-63.65,88.8-63.65,47.61,0,89.87,29.74,89.87,111.83v192.74l-36.14-.15-3-163c0-52.94-6.46-97-53-97-63.65,0-78,42.16-78,107l1,153-36.26.15v-222.48Z"/>
</svg>