<?xml version="1.0" encoding="UTF-8"?>
<svg id="Layer_5" data-name="Layer 5" xmlns="http://www.w3.org/2000/svg" viewBox="0 0 393 410">
  <defs>
    <style>
      .cls-1 {
        fill: #ffb000;
      }

      .cls-2 {
        fill: #c4e6ff;
      }

      .cls-3 {
        fill: #ff7f00;
      }

      .cls-4 {
        fill: #ff7f00;
      }
    </style>
  </defs>
  <g>
    <path class="cls-1" d="M139.33,232.57c0,13.45,4.43,25.06,13.26,34.79,2.51,2.67,5.18,4.94,7.96,6.86.24,3.96.35,8,.35,12.12,0,1.41,0,2.82-.04,4.24-8.2-3.61-14.08-8.55-17.57-12.43-8.9-9.77-14.39-21.1-16.39-34.08l-.9-55.41c4.16,4.2,8.08,9.1,11.84,14.63.47.71.94,1.45,1.37,2.16l.12,27.14Z"/>
    <path class="cls-2" d="M160.86,290.58c10.35,4.55,24.39,7.06,41.96,2.82,17.41-4.2,38.04-15.22,42.86-55.22,1.88-15.84-4.78-29.26-14.31-39.92-9.8-10.67-22.71-16.94-38.67-18.82-15.33-1.88-27.45-6.43-36.55-13.61-9.29-7.57-13.96-16.63-13.96-27.3,0-11.29,3.8-20.39,11.45-27.3,7.61-6.86,17.88-10.31,30.82-10.31,11.69,0,21.22,3.45,28.63,10.31,4.94,4.63,8.59,10.39,10.98,17.37,2.27,6.63,8.27,11.33,15.29,11.33h.94c0-16.28-5.18-29.3-15.41-39.02-10-9.73-23.53-14.59-40.43-14.59s-31.41,4.59-41.18,13.65c-3.76,3.49-6.82,7.57-9.14,12.16-2.59-5.33-6.16-10.31-10.78-14.82-10.27-10.16-22.75-15.22-37.41-15.22-10.55,0-20.08,2.86-28.71,8.51-8.63,5.45-15.06,12.86-19.26,22.28v-12.71c0-7.73-6.27-14-14-14v82.51H-.37V.17h158.08c41.65,0,77.3,19.33,107.06,57.96,29.69,38.67,44.55,85.53,44.55,140.63,0,58.24-14.86,108.04-44.55,149.34-29.77,41.3-65.41,61.96-107.06,61.96h-76.12c21.88,0,40.63-12.08,56.24-36.24,14.75-23.14,22.39-50.9,23.02-83.26Z"/>
    <path class="cls-3" d="M152.58,267.36c-8.82-9.73-13.26-21.33-13.26-34.79l-.12-27.14c12.59,19.45,19.69,42.39,21.33,68.79-2.78-1.92-5.45-4.2-7.96-6.86Z"/>
    <path class="cls-2" d="M139.09,170.85c1.29,1.65,2.71,3.29,4.2,4.82,9.49,10.04,22.43,15.96,38.67,17.84,15.26,1.92,27.45,6.43,36.51,13.65,9.06,7.53,13.61,16.63,13.61,27.3,0,14.08-4.31,25.53-12.9,34.32-8.82,8.43-20.39,12.71-34.71,12.71-8.94,0-16.86-2.43-23.92-7.26-1.65-26.39-8.75-49.34-21.33-68.79l-.12-34.59Z"/>
    <path class="cls-2" d="M85.95,95.04c10.71,0,19.88,3.84,27.61,11.53,7.73,7.65,11.57,16.9,11.57,27.77l.86,54.32c-12.98-13.29-27.77-19.96-44.39-19.96h-43.61v-28.75c1.29-8.08,4-15.26,8.04-21.65,2.43-3.84,5.33-7.37,8.75-10.63,9.14-8.39,19.49-12.63,31.18-12.63Z"/>
    <path class="cls-1" d="M46.03,118.29c-4.04,6.39-6.75,13.57-8.04,21.65v28.75h-14v-82.51c7.73,0,14,6.27,14,14v12.71l8.04,5.41Z"/>
    <path class="cls-3" d="M37.99,168.69h43.61c16.63,0,31.41,6.67,44.39,19.96l.9,55.41c2,12.98,7.49,24.31,16.39,34.08,3.49,3.88,9.37,8.82,17.57,12.43-.63,32.35-8.27,60.12-23.02,83.26-15.61,24.16-34.35,36.24-56.24,36.24H-.37v-241.38h24.35v75.38h14v-75.38Z"/>
    <path class="cls-1" d="M153.64,111.23c-7.65,6.9-11.45,16-11.45,27.3,0,10.67,4.67,19.73,13.96,27.3,9.1,7.18,21.22,11.73,36.55,13.61,15.96,1.88,28.86,8.16,38.67,18.82,9.53,10.67,16.2,24.08,14.31,39.92-4.82,40-25.45,51.02-42.86,55.22-17.57,4.24-31.61,1.73-41.96-2.82.04-1.41.04-2.82.04-4.24,0-4.12-.12-8.16-.35-12.12,7.06,4.82,14.98,7.26,23.92,7.26,14.31,0,25.88-4.27,34.71-12.71,8.59-8.78,12.9-20.24,12.9-34.32,0-10.67-4.55-19.77-13.61-27.3-9.06-7.22-21.26-11.73-36.51-13.65-16.24-1.88-29.18-7.8-38.67-17.84-1.49-1.53-2.9-3.18-4.2-4.82l.12,34.59c-.43-.71-.9-1.45-1.37-2.16-3.76-5.53-7.69-10.43-11.84-14.63l-.86-54.32c0-10.86-3.84-20.12-11.57-27.77-7.73-7.69-16.9-11.53-27.61-11.53-11.69,0-22.04,4.24-31.18,12.63-3.41,3.26-6.31,6.78-8.75,10.63l-8.04-5.41c4.2-9.41,10.63-16.82,19.26-22.28,8.63-5.65,18.16-8.51,28.71-8.51,14.67,0,27.14,5.06,37.41,15.22,4.63,4.51,8.2,9.49,10.78,14.82,2.31-4.59,5.37-8.67,9.14-12.16,9.77-9.06,23.49-13.65,41.18-13.65s30.43,4.86,40.43,14.59c10.24,9.73,15.41,22.75,15.41,39.02h-.94c-7.02,0-13.02-4.71-15.29-11.33-2.39-6.98-6.04-12.75-10.98-17.37-7.41-6.86-16.94-10.31-28.63-10.31-12.94,0-23.22,3.45-30.82,10.31Z"/>
    <rect class="cls-1" x="23.99" y="168.69" width="14" height="75.38"/>
  </g>
  <g>
    <path class="cls-1" d="M269.08,340.01l-.12,43.5c-.04,7.59-6.46,16.87-14.45,16.98l.08-60.48h14.49Z"/>
    <polygon class="cls-4" points="269.25 295.47 269.08 340.01 254.59 340.01 254.63 295.47 269.25 295.47"/>
    <path class="cls-1" d="M320.88,221.56c-33.13,0-44.6-19.93-49.69-29.92l7.95-4.75c1.37,2.17,2.94,4.26,4.76,6.32,9.44,10.92,20.99,16.38,34.66,16.38,14.53,0,26.09-5.09,34.66-15.22,8.82-10.36,13.21-23.94,13.21-40.8s-4.39-30.26-13.21-40.2c-8.57-10.14-20.12-15.22-34.66-15.22-13.66,0-25.22,5.46-34.66,16.38-1.2,1.35-2.32,2.73-3.31,4.15l-9.4-5.57c4.14-10.21,24.85-29.92,49.69-29.92,49.69,0,62.11,48.21,62.11,71.06s-16.56,67.32-62.11,67.32Z"/>
    <path class="cls-1" d="M271.19,113.11l9.4,5.57c-7.08,10.02-9.4,22.14-9.4,35.57,0,12.6,1.99,23.26,7.95,32.65l-7.95,4.75-1.9,89.76-.04,14.06h-14.62l.04-21.54V86.33c8.24,0,15.03,6.06,15.61,13.84l.91,12.94Z"/>
  </g>
</svg>